<?xml version="1.0" encoding="UTF-8"?>
<svg width="1cm" height="1cm" version="1.1" viewBox="0 0 10 10" xmlns="http://www.w3.org/2000/svg">
 <path d="m9.9999 0.99942-5.168e-4 5.1676e-4 -0.99942 0.99942-0.99942-0.99942h-0.00103l-0.83096 0.83044 0.097152 0.14108-0.099219 0.19379 0.154 0.08785 0.34727-0.25632 0.33486 0.33486-0.33538 0.33486 0.3328 0.3328 0.12506-0.12506 0.12506 0.12506-0.12506 0.12506-0.12506-0.12506-0.40359 0.2744-0.037724 0.43305 0.34468 0.21859 0.23048-0.15813 0.23358 0.30799 0.12764-0.075448 0.12506 0.12454-0.12506 0.12506-0.13177-0.098702-0.19999 0.23409 0.082166 0.11472-0.062528 0.062528 0.12454 0.12454-0.12506 0.12506-0.12454-0.12506 0.062528-0.062012-0.12506-0.12506 0.087333-0.11937-0.21032-0.25321-0.26665 0.38396 0.22893 0.31264-0.33486 0.33486 0.12506 0.12506-0.12506 0.12506-0.12506-0.12506 0.12506-0.12506-0.33486-0.33486 0.28422-0.3266-0.27854-0.58188-0.54312-0.034106-0.27285 0.33176 0.39532 0.53743-0.49558 0.49558 0.24546 0.24546-0.20257 0.24598 0.1049 0.12661-0.15038 0.11886-0.14469-0.11265 0.10387-0.12764-0.21136-0.25115 0.24546-0.24546-0.25735-0.37155-0.16588 0.0046509-0.12867 0.15141-0.11989-0.0082682-0.0056844-0.18965 0.18552-0.060461 0.42633-0.56999-0.14573-0.29352-0.37155 0.17983 0.025321 0.098702-0.10284 0.11886 0.087333 0.11524-0.10955 0.14108-0.084749-0.13694 0.066146-0.11059-0.10645-0.12712 0.081132-0.11782-0.12299-0.16691-0.14573 0.097152-0.12506-0.12506 0.12506-0.12506 0.15193 0.098185 0.22324-0.22324 0.12506 0.12506 0.69453-0.47491-0.27285-0.45734 0.59428-0.48731-0.12764-0.31213 0.12661-0.39532-0.51418-0.37259-0.25011 0.25011-0.25011-0.25011-0.75086 0.74982-0.03514 0.90485-0.81907 0.5302 0.85369 0.56482-0.41858 0.41858 0.27337 0.27647-0.10335 0.26303 0.20205 0.19069-0.20774 0.26923-0.26665-0.20567 0.068213-0.21187-0.30076-0.2465-0.24598 0.24598 5.167e-4 5.168e-4 -5.167e-4 5.168e-4 0.41651 1.0986 0.60823-0.10129 0.35708 0.42013 0.36432-0.16795 0.25011 0.25011-0.20826 0.2465 0.10594 0.11007-0.14314 0.13022-0.13591-0.13074 0.084233-0.091984-0.30541-0.18552-0.28474 0.43718 0.084749 0.23823 0.28525 0.21239 0.0863-0.054777 0.097669 0.13177-0.12247 0.076481-0.072864-0.0894-0.29042 0.17983-0.12919 0.27957 0.20102 0.25993-0.20154 0.23513 0.078031 0.1049-0.093534 0.068213 0.05426 0.099735-0.091467 0.13694-0.085783-0.13281 0.062012-0.10904-0.0894-0.085266 0.069246-0.084749-0.20154-0.23306 0.20205-0.2589-0.14056-0.29197-0.31161-0.19895-0.25321 0.14986 0.072864 0.11627-0.094051 0.12092-0.10387-0.11369 0.082682-0.12454-0.16898-0.11369 0.16071-0.1757 0.30386 0.14056 0.17828-0.10025 0.18759-0.40101-0.36587-0.49868-0.35243 0.41651-0.40101-0.17002-0.34933 0.59066 0.10284 0.16226-0.22324 0.22376 0.080615 0.095601-0.093018 0.14159-0.11265-0.12609 0.075964-0.10749-0.22738-0.22686 0.16175-0.27078-0.16175-0.23564-0.25011 0.2496-0.24701-0.20412-0.10129 0.058394 0.035657 0.083199-0.12506 0.12506-0.12506-0.12506 0.092501-0.10025-0.029972-0.086816 0.12506-0.12506 0.14779 0.079065 0.38344-0.20981 0.34055-0.49093-0.2465-0.24701 0.8754-0.8754v-0.24908l-0.37517-0.37569-0.37879 0.31006 0.12867 0.44028-0.50023 0.49971 0.022738 0.27802-0.33073 0.2005-0.10955 0.2744-0.16278 0.0051677-0.087333-0.25528 0.23771-0.15451-0.072864-0.18035 0.26252-0.262-0.30127-0.23668-0.20826 0.21136 0.038757 0.079582-0.12506 0.12506-0.12454-0.12506 0.040824-0.080098-0.25632-0.30179-0.096118 0.082166-0.11872-0.07073-0.092638 0.098119-0.12454-0.12506 0.12506-0.12506 0.076481 0.055811 0.11059-0.11834 0.13281 0.074414 0.34055-0.16381 0.30334 0.14418 0.37465-0.28629-0.10542-0.39326 0.63149-0.27957 0.11886-0.47077-0.25011-0.25011 0.25011-0.25011-0.70952-0.6289-0.23203 0.15348 0.066663 0.10077-0.12506 0.12506-0.12506-0.12506 0.075964-0.11265-0.19844-0.19947-0.12764 0.062012-0.12454-0.12506 0.12454-0.12506 0.14573 0.055811 0.22944-0.18087 0.31109 0.15761 0.43925-0.40721v-5.168e-4l-0.22169-0.48162-0.55242-0.018087-0.35088-0.37517-0.87488 0.87488-0.99994-0.99994v9h9.9999z" fill="#0c0c10" stroke-linecap="round" stroke-linejoin="bevel" stroke-width="3"/>
</svg>
