<?xml version="1.0" encoding="UTF-8"?>
<svg width="1.0467cm" height="1.0354cm" version="1.1" viewBox="0 0 10.467 10.354" xmlns="http://www.w3.org/2000/svg" xmlns:xlink="http://www.w3.org/1999/xlink">
 <defs>
  <linearGradient id="linearGradient2" x2="10" y1="5" y2="5" gradientUnits="userSpaceOnUse">
   <stop stop-color="#63ffb7" offset="0"/>
   <stop stop-color="#c2ff63" offset=".25"/>
   <stop stop-color="#fffac0" offset=".5"/>
   <stop stop-color="#c2ff63" offset=".75"/>
   <stop stop-color="#63ffb7" offset="1"/>
  </linearGradient>
 </defs>
 <g transform="translate(.23348 .17676)">
  <path transform="translate(-1.0088 8.5693)" d="m6.0098-8.7461a0.23252 0.23252 0 0 0-0.23242 0.21289l-0.12695 1.4355c-0.040734 0.00245-0.062076 0.01206-0.091797 0.00391-0.039203-0.010755-0.043315-0.013344-0.054687-0.039063-0.011373-0.025718-0.027488-0.11004 0.021484-0.28711a0.23252 0.23252 0 0 0-0.41797-0.19141l-0.60156 0.9082a0.23252 0.23252 0 0 0 0.32422 0.32031c0.12776-0.087253 0.22744-0.09353 0.33203-0.0625 0.10459 0.03103 0.2157 0.11479 0.30273 0.24023 0.16602 0.2393 0.21376 0.60091 0.044922 0.91406l-0.25977 0.11914-1.373-1.0156c-0.054891-0.59187-0.4376-1.0748-0.72852-1.3457a0.23252 0.23252 0 0 0-0.21094-0.056641l-1.5781 0.36914a0.23252 0.23252 0 0 0 0.044922 0.45898l1.2578 0.042969c0.064525 0.044938 0.14745 0.14575 0.21484 0.33789 0.07259 0.20695 0.12636 0.48686 0.16211 0.79297a0.23252 0.23252 0 0 0 0.10742 0.16992l0.46875 0.29102c-1.0102-0.055675-1.8615 0.27454-2.7578 1.0312a0.23252 0.23252 0 0 0-0.082031 0.18359c0.018366 0.74239 0.26377 1.302 0.72656 1.6191 0.43903 0.30084 1.0367 0.36033 1.7344 0.27539 0.15181 0.087822 0.19055 0.16356 0.18945 0.28516-0.0012 0.13352-0.080463 0.33964-0.22461 0.56055-0.28829 0.44182-0.80162 0.931-1.1387 1.2383a0.23252 0.23252 0 0 0 0.26953 0.375c0.57796-0.32028 1.1086-0.56587 1.4727-0.98242 0.33275-0.38072 0.44351-0.92943 0.32031-1.6562l0.25-0.13477-0.11133 0.17969a0.23252 0.23252 0 0 0-0.025391 0.18945c0.23152 0.77676 0.19714 1.1761 0.023437 1.5625-0.1737 0.38637-0.52903 0.77957-0.95898 1.4219a0.23252 0.23252 0 0 0 0.33984 0.31055c0.56944-0.45952 1.0859-0.83473 1.4023-1.3496 0.10769-0.1752 0.17449-0.37271 0.2207-0.58203a0.23252 0.23252 0 0 0 0.019531 0.15039c0.13186 0.22701 0.16674 0.37331 0.16797 0.54102 0.00123 0.16771-0.041976 0.36838-0.097656 0.65039a0.23252 0.23252 0 0 0 0.029297 0.16602l0.42578 0.69922a0.23252 0.23252 0 0 0 0.39844 0l0.42578-0.69922a0.23252 0.23252 0 0 0 0.029297-0.16602c-0.055681-0.28201-0.098886-0.48268-0.097656-0.65039 0.00123-0.16771 0.036111-0.31401 0.16797-0.54102a0.23252 0.23252 0 0 0 0.029297-0.09375c0.047571 0.18784 0.1126 0.3657 0.21094 0.52539 0.317 0.51482 0.83296 0.89013 1.4023 1.3496a0.23252 0.23252 0 0 0 0.33984-0.31055c-0.43-0.64237-0.78678-1.0374-0.96094-1.4238s-0.20806-0.78387 0.023438-1.5605a0.23252 0.23252 0 0 0-0.025391-0.18945l-0.11133-0.17773 0.25 0.13477c-0.12259 0.72557-0.00969 1.2739 0.32227 1.6543 0.36358 0.41663 0.89269 0.66211 1.4707 0.98242a0.23252 0.23252 0 0 0 0.26953-0.375c-0.33705-0.30728-0.85038-0.79646-1.1387-1.2383-0.14415-0.22091-0.22341-0.42702-0.22461-0.56055-0.00109-0.1216 0.037645-0.19733 0.18945-0.28516 0.69763 0.084935 1.2953 0.025449 1.7344-0.27539 0.46279-0.31712 0.7082-0.87675 0.72656-1.6191a0.23252 0.23252 0 0 0-0.08203-0.18359c-0.89631-0.75671-1.7476-1.0869-2.7578-1.0312l0.46875-0.29102a0.23252 0.23252 0 0 0 0.10742-0.16992c0.035753-0.30611 0.08952-0.58602 0.16211-0.79297 0.067395-0.19214 0.15032-0.29295 0.21484-0.33789l1.2578-0.042969a0.23252 0.23252 0 0 0 0.04492-0.45898l-1.5781-0.36914a0.23252 0.23252 0 0 0-0.21094 0.056641c-0.29092 0.27089-0.67362 0.75384-0.72852 1.3457l-1.3711 1.0156-0.26172-0.11914c-0.16884-0.31316-0.1211-0.67477 0.044922-0.91406 0.087032-0.12545 0.19814-0.2092 0.30273-0.24023 0.10459-0.03103 0.20427-0.024753 0.33203 0.0625a0.23252 0.23252 0 0 0 0.32422-0.32031l-0.60156-0.9082a0.23252 0.23252 0 0 0-0.41797 0.19141c0.048972 0.17707 0.032857 0.26139 0.021484 0.28711s-0.015484 0.028307-0.054687 0.039063c-0.029721 0.00815-0.051063-0.00146-0.091797-0.00391l-0.125-1.4355a0.23252 0.23252 0 0 0-0.23242-0.21289zm-0.76562 6.7539-0.00977 0.074219a0.23252 0.23252 0 0 0 0.015629 0.11914c0.14976 0.36714 0.13424 0.59266 0.068359 0.88867 0.016858-0.28935-0.048268-0.6272-0.1543-0.98828zm1.5293 0 0.080078 0.09375c-0.1056 0.35973-0.17083 0.69586-0.1543 0.98438-0.065407-0.29393-0.080576-0.51965 0.068359-0.88477a0.23252 0.23252 0 0 0 0.015625-0.11914z" fill="#0c0c10" stop-color="#000000" stroke-width=".1224"/>
  <path d="m5.0002 0-0.14418 1.6325s-0.79346 0.22993-0.56379-0.60048l-0.60151 0.90744c0.71423-0.48779 1.5053 0.63536 0.99632 1.4537l-0.47387 0.21962-1.5549-1.1534c2.721e-4 -0.54369-0.39164-1.0437-0.67593-1.3084l-1.5782 0.36897 1.3457 0.048059c0.29376 0.16239 0.43678 0.69888 0.51056 1.3307l1.5038 0.93276c-1.5599-0.47762-2.5638-0.24804-3.7641 0.76533 0.034473 1.3935 0.86809 1.873 2.3006 1.6676 1.0066 0.51546-0.41061 1.869-1.0904 2.4887 1.169-0.64779 2.0332-0.98014 1.6707-2.5699l1.1462-0.62684-0.57516 0.92811c0.48061 1.6125-0.1242 1.9247-0.96532 3.1812 1.1467-0.92531 1.9798-1.477 1.4242-3.1228l0.66198-0.77411-0.11576 0.85886c0.21214 0.52007 0.16211 0.8062 0.019637 1.3198 0.29316 0.50471 0.20758 0.79776 0.097669 1.3544l0.42581 0.69815 0.42581-0.69815c-0.10991-0.55668-0.19549-0.84973 0.097668-1.3544-0.14247-0.51361-0.1925-0.79974 0.019637-1.3198l-0.11576-0.85886 0.66198 0.77411c-0.55555 1.6459 0.27755 2.1975 1.4242 3.1228-0.84112-1.2565-1.4459-1.5687-0.96532-3.1812l-0.57516-0.92811 1.1462 0.62684c-0.36254 1.5897 0.50175 1.9221 1.6707 2.5699-0.67976-0.61972-2.097-1.9733-1.0904-2.4887 1.4325 0.2054 2.2662-0.27415 2.3006-1.6676-1.2003-1.0134-2.2042-1.2429-3.7641-0.76533l1.5038-0.93276c0.073785-0.63179 0.2168-1.1683 0.51056-1.3307l1.3457-0.048059-1.5782-0.36897c-0.28428 0.26471-0.6762 0.76476-0.67593 1.3084l-1.5549 1.1534-0.47387-0.21962c-0.50902-0.81829 0.28209-1.9414 0.99632-1.4537l-0.60151-0.90744c0.22967 0.83041-0.56379 0.60048-0.56379 0.60048zm-1.0609 4.0866 0.21136 0.25425-0.75964 0.28784 0.013953 0.13384-0.1509 0.049093-0.039791-0.10955-0.43046 0.13591-0.00465 0.25425 0.48111 0.095085 0.01602-0.11834 0.22893 0.023254-0.023771 0.12041 0.38396 0.066663-0.19017 0.22841c-0.48789-0.12606-0.96167-0.4155-1.4785-0.20722l-0.65784 0.48421-0.45837-0.066146 0.40618-0.23616-0.083716-0.11524 0.21291-0.11576 0.073381 0.12764 0.40618-0.24288c-0.11766-0.092844-0.12068-0.19424-0.023254-0.30386l-0.36794-0.15658-0.14728 0.10025-0.16691-0.072347 0.17208-0.12661-0.58446-0.21652 0.63045-0.089917 0.709 0.37362c0.56652 0.049445 1.1103-0.33857 1.6221-0.55759zm2.1218 0c0.51179 0.21902 1.0556 0.60703 1.6221 0.55759l0.709-0.37362 0.63045 0.089917-0.58446 0.21652 0.17208 0.12661-0.16691 0.072347-0.14728-0.10025-0.36794 0.15658c0.09743 0.10962 0.094407 0.21101-0.023254 0.30386l0.40618 0.24288 0.07338-0.12764 0.21291 0.11576-0.083716 0.11524 0.40618 0.23616-0.45837 0.066146-0.65784-0.48421c-0.5168-0.20828-0.99057 0.081167-1.4785 0.20722l-0.19017-0.22841 0.38396-0.066663-0.023771-0.12041 0.22893-0.023254 0.01602 0.11834 0.48111-0.095085-0.0046508-0.25425-0.43046-0.13591-0.039791 0.10955-0.1509-0.049093 0.013953-0.13384-0.75964-0.28784zm-1.2712 0.19637 0.098702 0.14263 0.11162-0.10077 0.11162 0.10077 0.098702-0.14263 0.1788 0.15865-0.11007 0.13643 0.16381 0.13953-0.16071 0.18397 0.095601 0.11886-0.12609 0.154-0.081132-0.11576-0.17053 0.21394-0.17053-0.21394-0.081132 0.11576-0.12609-0.154 0.095601-0.11886-0.16071-0.18397 0.16381-0.13953-0.11007-0.13643zm0.20154 0.31368c-0.084399 0.00442-0.1509 0.076654-0.1509 0.16485 0 0.091039 0.071462 0.16433 0.15968 0.16433 0.088218 0 0.15968-0.073292 0.15968-0.16433 0-0.088194-0.066496-0.16043-0.1509-0.16485-0.00274-1.425e-4 -0.00602 0-0.00878 0s-0.00605-1.425e-4 -0.00879 0zm0.008785 1.7399 0.26665 0.3266-0.26665 0.32298-0.26665-0.32298zm0 1.2945 0.26407 0.28732-0.26407 0.29507-0.26407-0.29507zm0 1.3947 0.21239 0.26768-0.21239 0.23203-0.21239-0.23203z" fill="url(#linearGradient2)" stop-color="#000000" style="font-variation-settings:normal"/>
  <path d="m0 0"/>
 </g>
</svg>
